<mxfile host="app.diagrams.net" modified="2021-01-03T14:25:17.437Z" agent="5.0 (Windows NT 10.0; Win64; x64) AppleWebKit/537.36 (KHTML, like Gecko) Chrome/87.0.4280.88 Safari/537.36" etag="YruC9YYlLbBfdP9u2KCB" version="14.1.8" type="github">
  <diagram id="vhUUZEsvVYUXClFToLcF" name="Page-1">
    <mxGraphModel dx="1422" dy="1931" grid="1" gridSize="10" guides="1" tooltips="1" connect="1" arrows="1" fold="1" page="1" pageScale="1" pageWidth="827" pageHeight="1169" math="0" shadow="0">
      <root>
        <mxCell id="0" />
        <mxCell id="1" parent="0" />
        <mxCell id="R9o-wIG0eUSM42d4Ve_N-1" value="MainActivity&lt;br&gt;PlaceFragment" style="rounded=1;whiteSpace=wrap;html=1;" vertex="1" parent="1">
          <mxGeometry x="120" y="-680" width="120" height="60" as="geometry" />
        </mxCell>
        <mxCell id="R9o-wIG0eUSM42d4Ve_N-11" style="edgeStyle=orthogonalEdgeStyle;rounded=0;orthogonalLoop=1;jettySize=auto;html=1;exitX=0.5;exitY=1;exitDx=0;exitDy=0;entryX=0.5;entryY=0;entryDx=0;entryDy=0;" edge="1" parent="1" source="R9o-wIG0eUSM42d4Ve_N-2" target="R9o-wIG0eUSM42d4Ve_N-4">
          <mxGeometry relative="1" as="geometry" />
        </mxCell>
        <mxCell id="R9o-wIG0eUSM42d4Ve_N-2" value="WeatherActivity" style="rounded=1;whiteSpace=wrap;html=1;" vertex="1" parent="1">
          <mxGeometry x="460" y="-680" width="120" height="60" as="geometry" />
        </mxCell>
        <mxCell id="R9o-wIG0eUSM42d4Ve_N-12" style="edgeStyle=orthogonalEdgeStyle;rounded=0;orthogonalLoop=1;jettySize=auto;html=1;exitX=0.5;exitY=1;exitDx=0;exitDy=0;entryX=0.25;entryY=0;entryDx=0;entryDy=0;" edge="1" parent="1" source="R9o-wIG0eUSM42d4Ve_N-3" target="R9o-wIG0eUSM42d4Ve_N-5">
          <mxGeometry relative="1" as="geometry" />
        </mxCell>
        <mxCell id="R9o-wIG0eUSM42d4Ve_N-3" value="PlaceViewModel" style="rounded=1;whiteSpace=wrap;html=1;" vertex="1" parent="1">
          <mxGeometry x="120" y="-584" width="120" height="60" as="geometry" />
        </mxCell>
        <mxCell id="R9o-wIG0eUSM42d4Ve_N-13" style="edgeStyle=orthogonalEdgeStyle;rounded=0;orthogonalLoop=1;jettySize=auto;html=1;exitX=0.5;exitY=1;exitDx=0;exitDy=0;entryX=0.75;entryY=0;entryDx=0;entryDy=0;" edge="1" parent="1" source="R9o-wIG0eUSM42d4Ve_N-4" target="R9o-wIG0eUSM42d4Ve_N-5">
          <mxGeometry relative="1" as="geometry" />
        </mxCell>
        <mxCell id="R9o-wIG0eUSM42d4Ve_N-4" value="WeatherViewModel&lt;span style=&quot;color: rgba(0 , 0 , 0 , 0) ; font-family: monospace ; font-size: 0px&quot;&gt;%3CmxGraphModel%3E%3Croot%3E%3CmxCell%20id%3D%220%22%2F%3E%3CmxCell%20id%3D%221%22%20parent%3D%220%22%2F%3E%3CmxCell%20id%3D%222%22%20value%3D%22PlaceViewModel%22%20style%3D%22rounded%3D1%3BwhiteSpace%3Dwrap%3Bhtml%3D1%3B%22%20vertex%3D%221%22%20parent%3D%221%22%3E%3CmxGeometry%20x%3D%22120%22%20y%3D%22-584%22%20width%3D%22120%22%20height%3D%2260%22%20as%3D%22geometry%22%2F%3E%3C%2FmxCell%3E%3C%2Froot%3E%3C%2FmxGraphModel%3E&lt;/span&gt;" style="rounded=1;whiteSpace=wrap;html=1;" vertex="1" parent="1">
          <mxGeometry x="460" y="-584" width="120" height="60" as="geometry" />
        </mxCell>
        <mxCell id="R9o-wIG0eUSM42d4Ve_N-14" style="edgeStyle=orthogonalEdgeStyle;rounded=0;orthogonalLoop=1;jettySize=auto;html=1;exitX=0;exitY=0.5;exitDx=0;exitDy=0;" edge="1" parent="1" source="R9o-wIG0eUSM42d4Ve_N-5" target="R9o-wIG0eUSM42d4Ve_N-6">
          <mxGeometry relative="1" as="geometry" />
        </mxCell>
        <mxCell id="R9o-wIG0eUSM42d4Ve_N-17" style="edgeStyle=orthogonalEdgeStyle;rounded=0;orthogonalLoop=1;jettySize=auto;html=1;exitX=1;exitY=0.5;exitDx=0;exitDy=0;entryX=0.5;entryY=0;entryDx=0;entryDy=0;" edge="1" parent="1" source="R9o-wIG0eUSM42d4Ve_N-5" target="R9o-wIG0eUSM42d4Ve_N-7">
          <mxGeometry relative="1" as="geometry" />
        </mxCell>
        <mxCell id="R9o-wIG0eUSM42d4Ve_N-5" value="Repository&lt;span style=&quot;color: rgba(0 , 0 , 0 , 0) ; font-family: monospace ; font-size: 0px&quot;&gt;%3CmxGraphModel%3E%3Croot%3E%3CmxCell%20id%3D%220%22%2F%3E%3CmxCell%20id%3D%221%22%20parent%3D%220%22%2F%3E%3CmxCell%20id%3D%222%22%20value%3D%22PlaceViewModel%22%20style%3D%22rounded%3D1%3BwhiteSpace%3Dwrap%3Bhtml%3D1%3B%22%20vertex%3D%221%22%20parent%3D%221%22%3E%3CmxGeometry%20x%3D%22120%22%20y%3D%22-584%22%20width%3D%22120%22%20height%3D%2260%22%20as%3D%22geometry%22%2F%3E%3C%2FmxCell%3E%3C%2Froot%3E%3C%2FmxGraphModel%3E&lt;/span&gt;" style="rounded=1;whiteSpace=wrap;html=1;" vertex="1" parent="1">
          <mxGeometry x="280" y="-430" width="120" height="60" as="geometry" />
        </mxCell>
        <mxCell id="R9o-wIG0eUSM42d4Ve_N-16" style="edgeStyle=orthogonalEdgeStyle;rounded=0;orthogonalLoop=1;jettySize=auto;html=1;exitX=0.5;exitY=1;exitDx=0;exitDy=0;entryX=0.5;entryY=0;entryDx=0;entryDy=0;entryPerimeter=0;" edge="1" parent="1" source="R9o-wIG0eUSM42d4Ve_N-6" target="R9o-wIG0eUSM42d4Ve_N-9">
          <mxGeometry relative="1" as="geometry" />
        </mxCell>
        <mxCell id="R9o-wIG0eUSM42d4Ve_N-6" value="PlaceDao" style="rounded=1;whiteSpace=wrap;html=1;" vertex="1" parent="1">
          <mxGeometry x="120" y="-310" width="120" height="60" as="geometry" />
        </mxCell>
        <mxCell id="R9o-wIG0eUSM42d4Ve_N-18" style="edgeStyle=orthogonalEdgeStyle;rounded=0;orthogonalLoop=1;jettySize=auto;html=1;exitX=0.5;exitY=1;exitDx=0;exitDy=0;" edge="1" parent="1" source="R9o-wIG0eUSM42d4Ve_N-7" target="R9o-wIG0eUSM42d4Ve_N-8">
          <mxGeometry relative="1" as="geometry" />
        </mxCell>
        <mxCell id="R9o-wIG0eUSM42d4Ve_N-7" value="WeatherNetWork&lt;br&gt;retrofit" style="rounded=1;whiteSpace=wrap;html=1;" vertex="1" parent="1">
          <mxGeometry x="460" y="-300" width="120" height="60" as="geometry" />
        </mxCell>
        <mxCell id="R9o-wIG0eUSM42d4Ve_N-8" value="彩云天气API" style="ellipse;shape=cloud;whiteSpace=wrap;html=1;" vertex="1" parent="1">
          <mxGeometry x="460" y="-150" width="120" height="80" as="geometry" />
        </mxCell>
        <mxCell id="R9o-wIG0eUSM42d4Ve_N-9" value="SharedPreferences" style="shape=cylinder3;whiteSpace=wrap;html=1;boundedLbl=1;backgroundOutline=1;size=15;" vertex="1" parent="1">
          <mxGeometry x="115" y="-170" width="130" height="80" as="geometry" />
        </mxCell>
        <mxCell id="R9o-wIG0eUSM42d4Ve_N-10" value="" style="endArrow=classic;html=1;exitX=0.5;exitY=1;exitDx=0;exitDy=0;entryX=0.5;entryY=0;entryDx=0;entryDy=0;" edge="1" parent="1" source="R9o-wIG0eUSM42d4Ve_N-1" target="R9o-wIG0eUSM42d4Ve_N-3">
          <mxGeometry width="50" height="50" relative="1" as="geometry">
            <mxPoint x="390" y="-330" as="sourcePoint" />
            <mxPoint x="440" y="-380" as="targetPoint" />
          </mxGeometry>
        </mxCell>
      </root>
    </mxGraphModel>
  </diagram>
</mxfile>
